<?xml version="1.0" encoding="utf-8"?>
<!-- Generator: Adobe Illustrator 16.0.0, SVG Export Plug-In . SVG Version: 6.00 Build 0)  -->
<!DOCTYPE svg PUBLIC "-//W3C//DTD SVG 1.1//EN" "http://www.w3.org/Graphics/SVG/1.1/DTD/svg11.dtd">
<svg version="1.1" id="Layer_1" xmlns="http://www.w3.org/2000/svg" xmlns:xlink="http://www.w3.org/1999/xlink" x="0px" y="0px"
	 width="216px" height="216px" viewBox="0 0 216 216" enable-background="new 0 0 216 216" xml:space="preserve">
<polygon points="29.474,69.003 29.474,76.738 65.835,76.738 26.997,129.801 81.796,129.801 81.796,122.064 43.014,122.064 
	81.796,69.003 "/>
<g>
	<defs>
		<rect id="SVGID_1_" x="30" y="69.004" width="155.35" height="78.996"/>
	</defs>
	<clipPath id="SVGID_2_">
		<use xlink:href="#SVGID_1_"  overflow="visible"/>
	</clipPath>
	<path clip-path="url(#SVGID_2_)" d="M158.993,95.634c1.84,0.639,3.266,1.732,4.281,3.281c1.013,1.55,1.521,3.281,1.521,5.193
		c0,1.941-0.457,3.673-1.369,5.193c-0.913,1.521-2.188,2.658-3.823,3.411c-1.639,0.754-4.658,1.13-9.062,1.13h-3.303V94.678h2.606
		C154.104,94.678,157.153,94.997,158.993,95.634 M147.238,148v-26.422h2.262c2.843,0,4.866,0.326,6.07,0.977
		c1.203,0.65,2.552,1.713,4.046,3.188c1.494,1.475,3.138,3.459,4.931,5.952l2.908,4.738l2.691,4.436l1.692,2.391
		c0.26,0.35,0.435,0.596,0.521,0.74l2.646,4h10.343l-3.216-4.346c-1.274-1.738-2.97-4.33-5.084-7.779
		c-3.361-5.475-5.969-9.314-7.822-11.516c-1.854-2.201-3.753-3.939-5.693-5.215c3.303-1.274,5.838-3.2,7.604-5.779
		c1.768-2.578,2.651-5.635,2.651-9.17c0-5.186-1.803-9.299-5.41-12.342c-3.606-3.042-8.481-4.563-14.623-4.563h-15.21V148H147.238z"
		/>
</g>
<path d="M106.51,84.55l16.201,6.299l-16.201,6.913V84.55z M90.543,78.191l9.961,3.956v18.193l-9.961,4.248v8.349l40.928-18.076
	v-8.086L90.543,69.9V78.191z"/>
<path d="M98.426,125.972l16.201-6.914v13.213L98.426,125.972z M89.666,130.044l40.928,16.875v-8.291l-9.961-3.955v-18.193
	l9.961-4.248v-8.35l-40.928,18.075V130.044z"/>
</svg>
